# xmcd
#
# Track frame offsets: 
#        150
#        20932
#        37145
#        57095
#        74685
#        91202
#        109512
#        122402
#        141395
#
# Disc length: 2267 seconds
#
# Revision: 0
# Processed by: cddbd v1.5.2PL0 Copyright (c) Steve Scherf et al.
# Submitted via: ExactAudioCopyFreeDBPlugin 1.0
#
DISCID=8208d909
DTITLE=Joe Pernice - Big Tobacco
DYEAR=2002
DGENRE=Alternative
TTITLE0=Prince Valium
TTITLE1=The Pill
TTITLE2=Bum Leg
TTITLE3=Pipe Bomb
TTITLE4=I Still Can'T Say Her Name
TTITLE5=Undertow
TTITLE6=I Break Down
TTITLE7=Hard To Take
TTITLE8=Second Semester Lesbian
EXTD=
EXTT0=
EXTT1=
EXTT2=
EXTT3=
EXTT4=
EXTT5=
EXTT6=
EXTT7=
EXTT8=
PLAYORDER=
